<svg width="32" height="32" viewBox="0 0 32 32" fill="none" xmlns="http://www.w3.org/2000/svg">
<g clip-path="url(#clip0_384_3099)">
<path d="M23.5112 32.0338L10.7114 23.0713C6.55695 20.1623 5.54573 14.4274 8.45474 10.2729L21.2545 19.2354C25.409 22.1444 26.4202 27.8793 23.5112 32.0338Z" fill="#FF8039"/>
<path d="M25.1745 26.7728C25.1745 28.5932 24.6357 30.4302 23.5126 32.0347L21.01 30.2823C21.4553 28.791 21.7028 27.1396 21.7028 25.4023C21.7028 22.8528 21.17 20.4876 20.2583 18.5389L21.2545 19.2362C23.8085 21.0249 25.1745 23.8762 25.1745 26.7728Z" fill="#1D1D1D"/>
<path d="M19.5879 11.7766L16.0015 14.2355L12.4136 11.7766L8.46942 9.07472L8.44678 0L16.0015 5.17434L19.5773 7.62566L19.5879 11.7766Z" fill="#FF8039"/>
<path d="M23.5562 0L23.5321 9.07472L19.5879 11.7766L16.0015 14.2355L12.4136 11.7766L12.4241 7.62566L16.0015 5.17434L23.5562 0Z" fill="#FF8039"/>
<path d="M8.44678 1.45358H10.569L8.44678 0V1.45358Z" fill="#1D1D1D"/>
<path d="M23.55 0V1.45358H21.4277" fill="#1D1D1D"/>
</g>
<defs>
<clipPath id="clip0_384_3099">
<rect width="32" height="32" fill="white"/>
</clipPath>
</defs>
</svg>
