<svg width="44" height="44" viewBox="0 0 44 44" fill="none" xmlns="http://www.w3.org/2000/svg">
<path d="M21.9996 0C9.84482 0 0 10.1005 0 22.5579C0 32.5264 6.30289 40.9799 15.0422 43.9603C16.1422 44.1726 16.5455 43.4744 16.5455 42.8756C16.5455 42.34 16.5272 40.9206 16.518 39.0401C10.3985 40.4002 9.10783 36.0138 9.10783 36.0138C8.10685 33.4102 6.66038 32.7139 6.66038 32.7139C4.66758 31.3155 6.81438 31.3442 6.81438 31.3442C9.0235 31.501 10.184 33.6685 10.184 33.6685C12.1456 37.1176 15.3337 36.1209 16.5914 35.5451C16.7894 34.0855 17.3559 33.0926 17.9847 32.5283C13.0989 31.964 7.96386 30.0242 7.96386 21.3814C7.96386 18.9194 8.81634 16.9069 10.228 15.3287C9.98049 14.7586 9.238 12.465 10.4205 9.3583C10.4205 9.3583 12.2629 8.7538 16.4704 11.6711C18.2303 11.1699 20.1003 10.9212 21.9703 10.9097C23.8402 10.9212 25.7102 11.1699 27.4702 11.6711C31.6501 8.7538 33.4926 9.3583 33.4926 9.3583C34.675 12.465 33.9326 14.7586 33.7126 15.3287C35.115 16.9069 35.9675 18.9194 35.9675 21.3814C35.9675 30.0472 30.8251 31.9544 25.9302 32.5092C26.7002 33.1864 27.4152 34.5695 27.4152 36.6833C27.4152 39.702 27.3877 42.1277 27.3877 42.8603C27.3877 43.4514 27.7727 44.1573 28.9001 43.9316C37.7018 40.9703 43.9992 32.5111 43.9992 22.5579C43.9992 10.1005 34.1489 0 21.9996 0Z" fill="white"/>
</svg>
