<svg width="44" height="44" viewBox="0 0 44 44" fill="none" xmlns="http://www.w3.org/2000/svg">
<path d="M43.9892 43.999V43.9971H44.0002V27.8605C44.0002 19.9663 42.3007 13.8853 33.0719 13.8853C28.6354 13.8853 25.6581 16.3199 24.4426 18.628H24.3143V14.6222H15.564V43.9971H24.6754V29.4518C24.6754 25.622 25.4014 21.9188 30.1442 21.9188C34.8172 21.9188 34.8869 26.2893 34.8869 29.6974V43.999H43.9892Z" fill="white"/>
<path d="M0.727051 14.624H9.84953V43.9989H0.727051V14.624Z" fill="white"/>
<path d="M5.28453 0C2.36776 0 0.000976562 2.36678 0.000976562 5.28356C0.000976562 8.20033 2.36776 10.6166 5.28453 10.6166C8.20131 10.6166 10.5681 8.20033 10.5681 5.28356C10.5663 2.36678 8.19947 0 5.28453 0V0Z" fill="white"/>
</svg>
