<svg width="44" height="44" viewBox="0 0 44 44" fill="none" xmlns="http://www.w3.org/2000/svg">
<path d="M32.0946 26.2297L32.0781 26.3672C28.0466 24.3579 27.625 24.0902 27.1043 24.8712C26.7432 25.4121 25.6909 26.6385 25.3737 27.0015C25.0529 27.359 24.7339 27.3865 24.1894 27.139C23.6394 26.864 21.8739 26.2865 19.784 24.4166C18.156 22.9591 17.0633 21.1716 16.7407 20.6216C16.2035 19.694 17.3273 19.562 18.3503 17.626C18.5337 17.241 18.4402 16.9385 18.3045 16.6654C18.167 16.3904 17.0725 13.6954 16.6142 12.6211C16.1742 11.5505 15.7214 11.6861 15.3822 11.6861C14.3262 11.5945 13.5544 11.6091 12.8743 12.3168C9.91531 15.5691 10.6615 18.924 13.1932 22.4916C18.1688 29.0035 20.8198 30.2025 25.667 31.8671C26.976 32.2833 28.1695 32.2246 29.1136 32.0889C30.1659 31.9221 32.3531 30.7671 32.8096 29.4746C33.2771 28.1822 33.2771 27.1097 33.1396 26.8622C33.0039 26.6147 32.6446 26.4772 32.0946 26.2297Z" fill="white"/>
<path d="M37.6183 6.32385C23.5221 -7.30308 0.193353 2.58024 0.184187 21.8042C0.184187 25.6468 1.19067 29.3941 3.1083 32.7032L-0.000976562 44L11.613 40.9714C26.1052 48.7996 43.9909 38.4048 43.9982 21.8152C43.9982 15.9927 41.7249 10.5129 37.5908 6.39534L37.6183 6.32385ZM40.3353 21.7547C40.3243 35.7483 24.9631 44.4877 12.8138 37.3451L12.1538 36.9528L5.27893 38.7403L7.12139 32.0579L6.68324 31.3704C-0.877294 19.3348 7.80888 3.60506 22.1306 3.60506C26.9962 3.60506 31.563 5.50253 35.0022 8.93996C38.4397 12.3481 40.3353 16.9148 40.3353 21.7547Z" fill="white"/>
</svg>
